@startuml
class Observer {
    update()
}

class Subject {
    observers
    attach(Observer)
    detach(Observer)
    notify()

}
note right of Subject::notify
    for all o in observers {
        o->update()
    }
end note

Observer <|-- Controller

Subject <|-- Model
Subject <|-- View

Subject --> Observer

Controller --> Model
Controller --> View

@enduml
